<svg xmlns="http://www.w3.org/2000/svg" viewBox="0 0 32.2 53.38"><defs><style>.cls-1,.cls-2,.cls-3{fill:#fff;}.cls-1{opacity:0.1;}.cls-2{opacity:0.35;}.cls-3{opacity:0.7;}</style></defs><title>Asset 4</title><g id="Layer_2" data-name="Layer 2"><g id="Arrows"><path class="cls-1" d="M32.08,2.21,30,.12a.39.39,0,0,0-.56,0L16.1,13.45,2.77.12a.4.4,0,0,0-.57,0L.12,2.2a.4.4,0,0,0,0,.57L13.73,16.38l2.08,2.09h0a.4.4,0,0,0,.56,0l15.7-15.7A.4.4,0,0,0,32.08,2.21Z"/><path class="cls-2" d="M32.08,20.07,30,18a.4.4,0,0,0-.56,0L16.1,31.32,2.77,18a.4.4,0,0,0-.57,0L.12,20.07a.4.4,0,0,0,0,.57L13.73,34.25l2.08,2.09h0a.4.4,0,0,0,.56,0l15.7-15.7A.42.42,0,0,0,32.08,20.07Z"/><path class="cls-3" d="M32.08,37,30,34.91a.39.39,0,0,0-.56,0L16.1,48.24,2.77,34.91a.4.4,0,0,0-.57,0L.12,37a.4.4,0,0,0,0,.57L13.73,51.17l2.08,2.09h0a.39.39,0,0,0,.56,0l15.7-15.7A.4.4,0,0,0,32.08,37Z"/></g></g></svg>